HIERARCHY
ROOT root
{
	OFFSET 0.000000 0.000000 0.000000
	CHANNELS 6 Xposition Yposition Zposition Zrotation Yrotation Xrotation
	JOINT lhip
	{
		OFFSET 0.058581 -0.082280 -0.017664
		CHANNELS 3 Zrotation Yrotation Xrotation
		JOINT lknee
		{
			OFFSET 0.043451 -0.386469 0.008037
			CHANNELS 3 Zrotation Yrotation Xrotation
			JOINT lankle
			{
				OFFSET -0.014790 -0.426874 -0.037428
				CHANNELS 3 Zrotation Yrotation Xrotation
				JOINT ltoe
				{
					OFFSET 0.041054 -0.060286 0.122042
					CHANNELS 3 Zrotation Yrotation Xrotation
					End Site
					{
						OFFSET 0.000000 0.000000 0.000000
					}
				}
			}
		}
	}
	JOINT rhip
	{
		OFFSET -0.060310 -0.090513 -0.013543
		CHANNELS 3 Zrotation Yrotation Xrotation
		JOINT rknee
		{
			OFFSET -0.043257 -0.383688 -0.004843
			CHANNELS 3 Zrotation Yrotation Xrotation
			JOINT rankle
			{
				OFFSET 0.019056 -0.420046 -0.034562
				CHANNELS 3 Zrotation Yrotation Xrotation
				JOINT rtoe
				{
					OFFSET -0.034840 -0.062106 0.130323
					CHANNELS 3 Zrotation Yrotation Xrotation
					End Site
					{
						OFFSET 0.000000 0.000000 0.000000
					}
				}
			}
		}
	}
	JOINT lowerback
	{
		OFFSET 0.004439 0.124404 -0.038385
		CHANNELS 3 Zrotation Yrotation Xrotation
		JOINT upperback
		{
			OFFSET 0.004488 0.137956 0.026820
			CHANNELS 3 Zrotation Yrotation Xrotation
			JOINT chest
			{
				OFFSET -0.002265 0.056032 0.002855
				CHANNELS 3 Zrotation Yrotation Xrotation
				JOINT lowerneck
				{
					OFFSET -0.013390 0.211636 -0.033468
					CHANNELS 3 Zrotation Yrotation Xrotation
					JOINT upperneck
					{
						OFFSET 0.010113 0.088937 0.050410
						CHANNELS 3 Zrotation Yrotation Xrotation
						End Site
						{
							OFFSET 0.000000 0.000000 0.000000
						}
					}
				}
				JOINT lclavicle
				{
					OFFSET 0.071702 0.114000 -0.018898
					CHANNELS 3 Zrotation Yrotation Xrotation
					JOINT lshoulder
					{
						OFFSET 0.122921 0.045205 -0.019046
						CHANNELS 3 Zrotation Yrotation Xrotation
						JOINT lelbow
						{
							OFFSET 0.255332 -0.015649 -0.022946
							CHANNELS 3 Zrotation Yrotation Xrotation
							JOINT lwrist
							{
								OFFSET 0.265709 0.012698 -0.007375
								CHANNELS 3 Zrotation Yrotation Xrotation
								End Site
								{
									OFFSET 0.000000 0.000000 0.000000
								}
							}
						}
					}
				}
				JOINT rclavicle
				{
					OFFSET -0.082954 0.112472 -0.023707
					CHANNELS 3 Zrotation Yrotation Xrotation
					JOINT rshoulder
					{
						OFFSET -0.113228 0.046853 -0.008472
						CHANNELS 3 Zrotation Yrotation Xrotation
						JOINT relbow
						{
							OFFSET -0.260127 -0.014369 -0.031269
							CHANNELS 3 Zrotation Yrotation Xrotation
							JOINT rwrist
							{
								OFFSET -0.269108 0.006794 -0.006027
								CHANNELS 3 Zrotation Yrotation Xrotation
								End Site
								{
									OFFSET 0.000000 0.000000 0.000000
								}
							}
						}
					}
				}
			}
		}
	}
}
MOTION
Frames: 10
Frame Time: 0.033333
0.220458 -0.063875 0.956383 140.980336 6.106714 89.303833 25.804066 13.859443 -4.839354 1.859873 10.647931 34.911980 -17.701993 2.109852 -2.386974 0.000000 -0.000000 0.000000 5.975081 10.000137 -22.636292 3.081287 6.612682 29.610873 3.763019 10.634558 -12.561331 0.000000 -0.000000 0.000000 -13.743209 -6.036897 17.489630 0.786899 -23.152342 7.052851 -0.870974 -11.074906 -11.964600 -13.162217 55.816700 2.594878 -2.945752 26.050408 0.318422 12.721241 -60.278976 -20.314330 -9.775617 -71.043891 -15.100391 3.950196 -21.960591 9.906862 14.852556 -17.442005 3.909983 3.379879 22.674331 -8.512800 48.665872 30.381998 7.722775 -102.695259 42.291849 -68.200170 -52.456259 8.740621 -30.834392 
0.227818 -0.063667 0.957910 140.269745 5.756472 89.402210 25.972837 13.868754 -4.660534 1.876978 10.599189 35.163518 -18.836309 2.378692 -0.372556 0.000000 -0.000000 0.000000 6.226287 10.200355 -22.608667 3.101839 7.188765 29.770465 3.888349 10.696386 -12.455350 0.000000 -0.000000 0.000000 -13.853923 -6.260614 17.452226 0.485774 -23.362132 6.362464 -1.090514 -11.203001 -11.824859 -14.121977 55.921840 0.998147 -2.944917 26.400097 -0.305002 15.983148 -60.396806 -23.679864 -3.406885 -72.370096 -20.734116 4.558623 -22.265747 7.708931 16.267167 -19.540008 3.155966 1.203454 21.679015 -10.208843 45.596448 29.906956 6.189858 -105.130067 42.001927 -69.451734 -52.900840 10.842288 -28.710312 
0.234394 -0.063185 0.959416 139.701295 5.391901 89.444510 25.990269 13.722744 -4.380968 1.917298 10.427314 35.174510 -20.132640 2.582441 1.551552 0.000000 -0.000000 0.000000 6.358688 10.355541 -22.413800 3.168576 7.697381 29.727927 4.011082 10.623634 -12.328215 0.000000 -0.000000 0.000000 -13.928228 -6.290888 17.373865 0.137814 -23.529708 6.130473 -1.318599 -11.200406 -12.031625 -14.790344 55.933987 -0.309744 -2.774751 26.644331 -0.745544 19.035413 -60.986892 -26.741921 3.015353 -73.235359 -26.429372 5.007026 -22.036184 6.004023 18.084866 -22.403242 3.051573 -0.432736 21.077628 -11.630989 42.268941 28.676615 4.207014 -107.799816 41.485302 -70.888281 -52.872490 13.249549 -26.720806 
0.240199 -0.063528 0.960813 139.244509 5.179966 89.574774 26.168727 13.794148 -4.256023 1.856839 10.346119 35.192470 -21.005728 2.909998 3.242531 0.000000 -0.000000 0.000000 6.680733 10.364294 -22.288019 3.223853 8.504548 29.687217 4.002904 10.493386 -12.015297 0.000000 -0.000000 0.000000 -13.590241 -6.818884 17.509630 -0.075779 -23.476849 5.219214 -1.577151 -11.703522 -11.346645 -18.548240 56.137348 -4.694653 -2.082095 27.070285 -0.615913 22.413205 -59.024632 -30.464880 7.144997 -74.760415 -30.724673 6.096370 -22.950260 5.144397 19.304053 -23.484758 0.183052 -2.954007 19.947866 -13.062640 40.687062 29.000266 2.858205 -109.402062 41.158961 -70.513295 -52.864485 14.697578 -26.092092 
0.244975 -0.063689 0.961933 138.992102 4.916921 89.750793 26.009154 13.526031 -4.212970 1.983706 10.217011 35.089030 -21.625346 3.225618 4.247313 0.000000 -0.000000 0.000000 6.705603 10.539828 -22.363903 3.319955 8.732698 29.748288 4.202912 10.404480 -11.885959 0.000000 -0.000000 0.000000 -13.883196 -6.632717 17.326093 -0.364762 -23.752199 5.182173 -1.630163 -11.422176 -11.777891 -16.811124 56.235372 -3.039291 -2.082650 27.509246 -1.255033 24.061092 -60.730181 -31.413962 14.242785 -73.958915 -36.688630 6.633970 -22.986057 2.774236 19.948334 -25.459396 0.761543 -3.703738 19.605640 -13.421210 37.667275 27.275945 1.179653 -110.471818 40.795848 -71.503948 -52.391079 16.009869 -24.951862 
0.249149 -0.063637 0.962809 138.876216 4.915301 89.762686 26.271630 13.696605 -4.033783 2.250776 10.399182 34.956094 -22.246754 3.403223 5.402004 0.000000 -0.000000 0.000000 7.043818 10.668721 -22.155142 3.266773 8.892888 29.653921 4.126060 10.248780 -11.916298 0.000000 -0.000000 0.000000 -13.673675 -6.840396 17.376966 -0.565130 -23.818862 4.973424 -1.676400 -11.548908 -11.733916 -17.487777 56.135355 -3.689214 -2.097908 28.045117 -1.662871 25.960768 -60.609292 -33.419596 17.432400 -73.812336 -39.842624 7.023744 -23.334628 2.011294 20.462630 -26.391017 1.160114 -5.236197 19.066894 -14.198249 36.320507 26.377831 0.279319 -111.139441 40.513329 -71.305427 -52.701425 17.164015 -23.423534 
0.252244 -0.063610 0.963473 138.757180 4.836492 89.716465 26.375923 14.027184 -3.767794 2.449536 10.437768 34.517008 -22.714288 3.713711 6.605250 0.000000 -0.000000 0.000000 7.199457 10.494924 -22.053771 3.369413 9.071267 29.754009 4.047254 10.345142 -11.824558 0.000000 -0.000000 0.000000 -13.690716 -6.932321 17.573535 -0.698368 -23.880299 4.684466 -1.682472 -11.555726 -11.488460 -18.032095 56.218933 -4.373141 -2.056810 28.166527 -1.852743 27.176550 -60.523161 -34.609500 20.445705 -73.550366 -42.513458 7.247966 -23.536504 1.591186 20.829209 -26.475789 1.168338 -6.261857 18.669441 -14.621892 34.960371 25.791956 -0.703833 -111.202994 40.734644 -71.409115 -53.534924 17.209339 -23.569132 
0.254151 -0.063871 0.964194 138.638175 4.811105 89.880691 26.299198 13.910292 -3.699574 2.237622 9.939970 34.249579 -22.773507 3.993831 6.709857 0.000000 -0.000000 0.000000 7.314728 10.502348 -22.127880 3.457662 9.361974 29.677395 4.175630 10.280004 -11.623655 0.000000 -0.000000 0.000000 -13.646728 -6.985361 17.412708 -0.834666 -23.834070 4.592638 -1.723074 -11.604620 -11.274244 -18.310328 56.102899 -4.683316 -2.119007 28.392133 -2.065403 27.740681 -60.312796 -35.077603 22.493394 -73.437354 -44.470515 7.475216 -23.665184 1.128078 21.156880 -26.074786 1.465435 -7.021393 18.287188 -14.737110 34.075994 25.392594 -1.310233 -111.067706 40.863032 -71.220181 -53.870385 17.537129 -23.652391 
0.254894 -0.064254 0.964871 138.661340 4.752393 89.989750 26.353674 14.054885 -3.839620 2.174309 9.911564 34.151735 -23.086515 4.228864 7.397421 0.000000 -0.000000 0.000000 7.285840 10.505120 -22.097756 3.516557 9.585024 29.385759 4.201294 10.126549 -11.394126 0.000000 -0.000000 0.000000 -13.646200 -6.896936 17.407381 -1.045968 -23.845828 4.798134 -1.766033 -11.544447 -11.407638 -17.719202 56.067161 -3.986206 -2.116815 28.669640 -2.655103 28.222019 -60.860621 -35.271363 23.299479 -72.700557 -44.671578 7.451425 -23.927831 0.767067 21.674469 -25.410942 2.134375 -7.273207 18.286091 -14.886046 33.341456 24.574245 -1.657498 -110.637299 40.950630 -71.455405 -54.085053 16.929743 -24.354323 
0.254108 -0.064794 0.965398 138.638925 4.736700 90.079460 26.395548 14.232621 -3.983205 2.027051 9.844077 34.143825 -23.209570 4.232633 7.584837 0.000000 -0.000000 0.000000 7.266616 10.352753 -22.225100 3.468182 9.656524 29.268802 4.328770 10.307753 -11.243941 0.000000 -0.000000 0.000000 -13.477168 -6.806829 17.632753 -1.127684 -23.695708 4.649264 -1.740452 -11.550755 -11.306348 -18.016929 56.138393 -4.054274 -2.057946 28.894766 -2.742597 28.368292 -60.793373 -35.646078 23.619932 -72.652821 -44.906698 7.475225 -23.599439 0.812689 20.864770 -24.197965 2.982317 -7.805711 18.276954 -15.028008 33.155979 24.445715 -1.810389 -109.955259 41.119005 -71.770963 -54.543912 15.573147 -25.936732 
